<?xml version="1.0" encoding="utf-8"?>
<svg xmlns="http://www.w3.org/2000/svg" xmlns:svg="http://www.w3.org/2000/svg" version="1.1" viewBox="0 0 1400 440">
	<title>The titlepage for the Standard Ebooks edition of The Lair of the White Worm, by Bram Stoker</title>
	<g aria-label="THE LAIR">
		<path d="m 468.06213,68.245613 h 18.33918 V 130 h 17.59065 V 68.245613 h 18.33918 V 52.807016 h -54.26901 z"/>
		<path d="m 551.25658,99.029239 h 24.88888 V 130 h 17.59065 V 52.807016 H 576.14546 V 83.590642 H 551.25658 V 52.807016 H 533.66593 V 130 h 17.59065 z"/>
		<path d="M 654.10161,52.807016 H 609.93787 V 130 h 44.16374 v -15.4386 h -26.5731 V 99.029239 H 652.9788 V 83.590642 H 627.52851 V 68.245613 h 26.5731 z"/>
		<path d="M 717.38962,52.807016 H 699.79898 V 130 h 44.16374 v -15.4386 h -26.5731 z"/>
		<path d="m 798.27998,52.807016 h -16.2807 L 750.84138,130 h 18.90059 l 5.7076,-15.4386 h 29.38012 L 810.53729,130 h 18.90059 z m 0.56141,46.31579 h -17.40351 l 8.60818,-22.45614 h 0.18714 z"/>
		<path d="M 854.94811,52.807016 H 837.35747 V 130 h 17.59064 z"/>
		<path d="M 871.23174,52.807016 V 130 h 17.59064 V 99.497075 L 912.40133,130 H 934.7639 L 908.1908,98.093567 c 9.45029,-2.994152 15.81287,-10.760234 15.81287,-22.362574 0,-15.157895 -10.85381,-22.923977 -25.16959,-22.923977 z m 17.59064,34.245615 V 66.842104 h 2.05848 c 6.64327,0 14.59649,0.467836 14.59649,10.105263 0,9.637428 -7.95322,10.105264 -14.59649,10.105264 z"/>
	</g>
	<g aria-label="OF THE WHITE WORM">
		<path d="m 150.913,191.35672 c 0,22.54971 16.09357,40.04679 38.92398,40.04679 22.17544,0 38.83041,-17.49708 38.83041,-40.04679 0,-22.5497 -17.40351,-39.95321 -38.83041,-39.95321 -21.23977,0 -38.92398,17.40351 -38.92398,39.95321 z m 18.99416,0 c 0,-11.50877 6.36257,-23.01754 19.92982,-23.01754 13.66082,0 19.83626,11.50877 19.83626,23.01754 0,11.50878 -5.80117,23.01755 -19.83626,23.01755 -14.40936,0 -19.92982,-11.50877 -19.92982,-23.01755 z"/>
		<path d="M 286.06066,152.80702 H 241.42908 V 230 h 17.59065 v -30.97076 h 24.98245 v -15.4386 h -24.98245 v -15.34503 h 27.04093 z"/>
		<path d="m 320.57675,168.24561 h 18.33919 V 230 h 17.59064 v -61.75439 h 18.33918 v -15.43859 h -54.26901 z"/>
		<path d="m 403.77119,199.02924 h 24.88889 V 230 h 17.59064 v -77.19298 h -17.59064 v 30.78362 H 403.77119 V 152.80702 H 386.18055 V 230 h 17.59064 z"/>
		<path d="M 506.61622,152.80702 H 462.45248 V 230 h 44.16374 v -15.4386 h -26.5731 v -15.53216 h 25.45029 v -15.4386 h -25.45029 v -15.34503 h 26.5731 z"/>
		<path d="m 603.50074,230 h 19.46199 l 21.9883,-77.19298 h -19.46199 l -13.19298,52.95906 h -0.46784 l -14.03509,-52.95906 h -13.28655 l -14.03508,52.95906 h -0.46784 L 556.81068,152.80702 H 537.25512 L 559.24343,230 h 19.55555 l 12.35088,-43.32164 z"/>
		<path d="m 671.76095,199.02924 h 24.88889 V 230 h 17.59065 v -77.19298 h -17.59065 v 30.78362 H 671.76095 V 152.80702 H 654.17031 V 230 h 17.59064 z"/>
		<path d="M 748.0329,152.80702 H 730.44225 V 230 h 17.59065 z"/>
		<path d="m 754.8823,168.24561 h 18.33918 V 230 h 17.59064 v -61.75439 h 18.33918 v -15.43859 h -54.269 z"/>
		<path d="M 864.64988,152.80702 H 820.48614 V 230 h 44.16374 v -15.4386 h -26.5731 v -15.53216 h 25.45029 v -15.4386 h -25.45029 v -15.34503 h 26.5731 z"/>
		<path d="m 961.53434,230 h 19.46199 l 21.98827,-77.19298 h -19.46196 l -13.19298,52.95906 h -0.46784 l -14.03509,-52.95906 h -13.28655 l -14.03508,52.95906 h -0.46784 L 914.84428,152.80702 H 895.28872 L 917.27703,230 h 19.55555 l 12.35088,-43.32164 z"/>
		<path d="m 1005.818,191.35672 c 0,22.54971 16.0935,40.04679 38.9239,40.04679 22.1755,0 38.8305,-17.49708 38.8305,-40.04679 0,-22.5497 -17.4036,-39.95321 -38.8305,-39.95321 -21.2397,0 -38.9239,17.40351 -38.9239,39.95321 z m 18.9941,0 c 0,-11.50877 6.3626,-23.01754 19.9298,-23.01754 13.6609,0 19.8363,11.50877 19.8363,23.01754 0,11.50878 -5.8012,23.01755 -19.8363,23.01755 -14.4093,0 -19.9298,-11.50877 -19.9298,-23.01755 z"/>
		<path d="M 1096.3341,152.80702 V 230 h 17.5906 V 199.49708 L 1137.5037,230 h 22.3626 l -26.5731,-31.90643 c 9.4503,-2.99416 15.8128,-10.76024 15.8128,-22.36258 0,-15.15789 -10.8538,-22.92397 -25.1696,-22.92397 z m 17.5906,34.24561 V 166.8421 h 2.0585 c 6.6433,0 14.5965,0.46784 14.5965,10.10527 0,9.63742 -7.9532,10.10526 -14.5965,10.10526 z"/>
		<path d="m 1232.2156,230 h 17.5907 l -6.924,-77.19298 h -18.7135 l -17.1228,44.53801 -17.1228,-44.53801 h -18.7134 L 1164.2858,230 h 17.5906 l 3.6492,-45.75439 h 0.4678 l 15.8129,45.28655 h 10.4795 l 15.8129,-45.28655 h 0.4678 z"/>
	</g>
	<g aria-label="BRAM STOKER">
		<path d="M 415.57292,332.10526 V 390 h 21.96491 c 12,0 18.94737,-6.59649 18.94737,-16.14035 0,-9.33333 -5.12281,-13.33333 -12.35088,-14.59649 4.91228,-2.52632 7.22807,-7.08772 7.22807,-12.42105 0,-11.01755 -7.85965,-14.73685 -17.82456,-14.73685 z m 13.19298,22.66667 V 342.2807 h 1.05263 c 5.75439,0 8.77193,1.75439 8.77193,5.89474 0,4.8421 -3.08772,6.59649 -8.77193,6.59649 z m 0,25.05263 v -13.68421 h 4.14035 c 6.24562,0 9.68421,1.89474 9.68421,7.22807 0,4.5614 -3.43859,6.45614 -9.68421,6.45614 z"/>
		<path d="M 467.31086,332.10526 V 390 h 13.19298 V 367.12281 L 498.18805,390 h 16.77193 l -19.92982,-23.92982 c 7.08771,-2.24562 11.85964,-8.07018 11.85964,-16.77193 0,-11.36842 -8.14035,-17.19299 -18.87719,-17.19299 z m 13.19298,25.68421 v -15.15789 h 1.54386 c 4.98246,0 10.94737,0.35088 10.94737,7.57895 0,7.22807 -5.96491,7.57894 -10.94737,7.57894 z"/>
		<path d="M 552.0159,332.10526 H 539.80538 L 516.43696,390 h 14.17543 l 4.28071,-11.57895 h 22.03508 L 561.20888,390 h 14.17544 z m 0.42105,34.73685 H 539.38432 L 545.84046,350 h 0.14035 z"/>
		<path d="m 630.43367,390 h 13.19298 l -5.19298,-57.89474 h -14.03509 l -12.84211,33.40351 -12.8421,-33.40351 H 584.67928 L 579.4863,390 h 13.19298 l 2.73684,-34.31579 h 0.35088 l 11.85965,33.96491 h 7.85965 l 11.85965,-33.96491 h 0.35087 z"/>
		<path d="m 698.06305,331.05263 c -9.33333,0 -18.87719,6.8772 -18.87719,17.68421 0,6.03509 4.07017,11.4386 11.01754,14.8772 6.8772,3.43859 13.05263,5.33333 13.05263,9.54385 0,5.40351 -5.47368,5.68422 -8.35087,5.68422 -6.45614,0 -14.17544,-6.52632 -14.17544,-6.52632 l -6.59649,11.08772 c 0,0 8.21052,7.64912 21.75438,7.64912 11.29825,0 21.82456,-4.8421 21.82456,-18.66666 0,-7.57895 -7.08772,-13.05264 -13.54386,-15.78948 -6.59649,-2.80702 -12.07017,-5.12281 -12.07017,-8.35088 0,-3.15789 2.38596,-5.19298 6.87719,-5.19298 5.96491,0 11.7193,4 11.7193,4 l 5.33333,-10.52631 c 0,0 -7.43859,-5.47369 -17.96491,-5.47369 z"/>
		<path d="m 721.80319,343.68421 h 13.75439 V 390 h 13.19298 v -46.31579 h 13.75438 v -11.57895 h -40.70175 z"/>
		<path d="m 767.46654,361.01754 c 0,16.91228 12.07018,30.03509 29.19298,30.03509 16.63158,0 29.12281,-13.12281 29.12281,-30.03509 0,-16.91228 -13.05263,-29.96491 -29.12281,-29.96491 -15.92982,0 -29.19298,13.05263 -29.19298,29.96491 z m 14.24561,0 c 0,-8.63157 4.77193,-17.26315 14.94737,-17.26315 10.24562,0 14.8772,8.63158 14.8772,17.26315 0,8.63158 -4.35088,17.26316 -14.8772,17.26316 -10.80702,0 -14.94737,-8.63158 -14.94737,-17.26316 z"/>
		<path d="m 889.30537,390 -26.94736,-30.45614 23.29824,-27.4386 h -16 L 849.7966,355.75439 V 332.10526 H 836.60362 V 390 H 849.7966 V 365.4386 L 871.12994,390 Z"/>
		<path d="m 929.96217,332.10526 h -33.1228 V 390 h 33.1228 v -11.57895 h -19.92982 v -11.64912 h 19.08772 v -11.57895 h -19.08772 v -11.50877 h 19.92982 z"/>
		<path d="M 942.54661,332.10526 V 390 H 955.7396 V 367.12281 L 973.42381,390 h 16.77193 l -19.92983,-23.92982 c 7.08772,-2.24562 11.85965,-8.07018 11.85965,-16.77193 0,-11.36842 -8.14035,-17.19299 -18.87719,-17.19299 z m 13.19299,25.68421 v -15.15789 h 1.54385 c 4.98246,0 10.94737,0.35088 10.94737,7.57895 0,7.22807 -5.96491,7.57894 -10.94737,7.57894 z"/>
	</g>
</svg>
